<svg width="15" height="17" viewBox="0 0 15 17" fill="none" xmlns="http://www.w3.org/2000/svg">
<g id="elements">
<path id="Vector" d="M3.65912 10.9661C2.65699 11.5629 0.0294666 12.7813 1.6298 14.3059C2.41155 15.0507 3.28222 15.5834 4.37687 15.5834H10.6231C11.7178 15.5834 12.5884 15.0507 13.3702 14.3059C14.9705 12.7813 12.343 11.5629 11.3409 10.9661C8.99091 9.56687 6.00909 9.56687 3.65912 10.9661Z" stroke="#141B34" stroke-width="1.5" stroke-linecap="round" stroke-linejoin="round"/>
<path id="Ellipse 1381" d="M10.6875 4.60419C10.6875 6.36459 9.26041 7.79169 7.5 7.79169C5.73959 7.79169 4.3125 6.36459 4.3125 4.60419C4.3125 2.84378 5.73959 1.41669 7.5 1.41669C9.26041 1.41669 10.6875 2.84378 10.6875 4.60419Z" stroke="#141B34" stroke-width="1.5"/>
</g>
</svg>
