<svg width="17" height="17" viewBox="0 0 17 17" fill="none" xmlns="http://www.w3.org/2000/svg">
<g clip-path="url(#clip0_1_556)">
<path d="M10.625 12.0417C10.0587 12.4825 9.31476 12.75 8.5 12.75C7.68525 12.75 6.94133 12.4825 6.375 12.0417" stroke="white" stroke-width="1.5" stroke-linecap="round"/>
<path d="M1.66565 9.35955C1.41559 7.73236 1.29057 6.91876 1.5982 6.1975C1.90583 5.47623 2.58835 4.98274 3.95339 3.99577L4.97328 3.25835C6.67137 2.03058 7.52041 1.41669 8.50008 1.41669C9.47975 1.41669 10.3288 2.03058 12.0269 3.25835L13.0468 3.99577C14.4118 4.98274 15.0943 5.47623 15.402 6.1975C15.7096 6.91876 15.5846 7.73236 15.3345 9.35955L15.1213 10.7471C14.7668 13.0538 14.5896 14.2072 13.7623 14.8953C12.935 15.5834 11.7256 15.5834 9.30674 15.5834H7.69342C5.27457 15.5834 4.06514 15.5834 3.23787 14.8953C2.4106 14.2072 2.23336 13.0538 1.87888 10.7471L1.66565 9.35955Z" stroke="white" stroke-width="1.5" stroke-linejoin="round"/>
</g>
<defs>
<clipPath id="clip0_1_556">
<rect width="17" height="17" fill="white"/>
</clipPath>
</defs>
</svg>
