<svg width="30" height="47" viewBox="0 0 30 47" fill="none" xmlns="http://www.w3.org/2000/svg">
<path d="M11.1721 39.7156C11.1817 37.9393 8.69246 36.4857 5.61219 36.469C2.53192 36.4523 0.0270605 37.8788 0.0174327 39.6552C0.00780488 41.4315 2.49705 42.8851 5.57733 42.9018C8.6576 42.9185 11.1625 41.492 11.1721 39.7156Z" fill="#001D86"/>
<path d="M8.70571 7.69031V37.5615C8.70571 39.2723 7.30283 40.6752 5.59199 40.6752C3.88116 40.6752 2.47827 39.2723 2.47827 37.5615V7.69031H8.70571Z" fill="#94D6FF"/>
<path d="M8.73993 7.69031H2.47827V22.2324H8.73993V7.69031Z" fill="#94D6FF"/>
<path d="M8.70575 16.7577V35.3032C8.63732 35.7138 8.32937 36.0902 7.81612 36.4323C6.58431 37.1509 4.59974 37.1509 3.36794 36.4323C2.82048 36.1244 2.51253 35.7138 2.44409 35.3032V16.7577C2.51253 17.1683 2.82048 17.5447 3.36794 17.8869C4.59974 18.6054 6.58431 18.6054 7.81612 17.8869C8.36358 17.5789 8.67153 17.1683 8.70575 16.7577Z" fill="#E6E6E6"/>
<path d="M8.70575 16.7577V35.3032C8.63732 35.7138 8.32937 36.0902 7.81612 36.4323C6.58431 37.1509 4.59974 37.1509 3.36794 36.4323C2.82048 36.1244 2.51253 35.7138 2.44409 35.3032V16.7577C2.51253 17.1683 2.82048 17.5447 3.36794 17.8869C4.59974 18.6054 6.58431 18.6054 7.81612 17.8869C8.36358 17.5789 8.67153 17.1683 8.70575 16.7577Z" fill="#E6E6E6"/>
<path d="M8.70575 18.7423V20.2478C8.63732 20.6584 8.32937 21.069 7.81612 21.377C7.47395 21.5823 7.09756 21.7192 6.68696 21.7876C5.59203 22.0271 4.29179 21.8902 3.36794 21.377C2.82048 21.069 2.51253 20.6584 2.44409 20.2478V18.7423C2.51253 19.1529 2.82048 19.5293 3.36794 19.8715C4.25758 20.3847 5.55781 20.5216 6.68696 20.2821C7.09756 20.1794 7.47395 20.0425 7.81612 19.8715C8.36358 19.5635 8.67153 19.1529 8.70575 18.7423Z" fill="#FF6666"/>
<path d="M8.7059 35.3374V37.5615C8.7059 39.2723 7.30301 40.6752 5.59217 40.6752C5.25001 40.6752 4.90784 40.6068 4.56567 40.5041C5.79748 40.0935 6.68711 38.9302 6.68711 37.5615V36.8772C7.09771 36.7745 7.47409 36.6377 7.81626 36.4666C8.36373 36.1244 8.67168 35.748 8.7059 35.3374Z" fill="#38B3FF"/>
<path d="M8.70575 12.4122C8.63732 12.8228 8.36358 13.1992 7.85033 13.5072L7.81612 13.5414C7.74768 13.5756 7.64503 13.644 7.5766 13.6782C7.54238 13.6782 7.50816 13.7125 7.47395 13.7125C7.40551 13.7467 7.3713 13.7467 7.30286 13.7809C7.26865 13.7809 7.23443 13.8151 7.166 13.8151C7.09756 13.8493 7.06335 13.8493 6.99491 13.8835C6.9607 13.8835 6.92648 13.9178 6.89226 13.9178C6.82383 13.9178 6.7554 13.952 6.72118 13.952C5.59203 14.1915 4.29179 14.0546 3.36794 13.5414C2.82048 13.2334 2.51253 12.8228 2.44409 12.4122V13.9178C2.51253 14.3284 2.82048 14.7047 3.36794 15.0469C4.25758 15.5602 5.55781 15.697 6.68696 15.4575V18.3317C7.09756 18.2291 7.47395 18.0922 7.81612 17.9211C8.36358 17.6132 8.63732 17.2026 8.70575 16.792V12.4122Z" fill="#38B3FF"/>
<path d="M8.7058 16.7577V18.7423C8.63736 19.1529 8.32941 19.5635 7.81616 19.8715C7.474 20.0768 7.09761 20.2136 6.68701 20.2821V18.2975C7.09761 18.1948 7.474 18.058 7.81616 17.8869C8.36363 17.5789 8.67158 17.1683 8.7058 16.7577Z" fill="#CCCCCC"/>
<path d="M8.7058 20.2821V35.3374C8.63736 35.748 8.32941 36.1586 7.81616 36.4666C7.474 36.6719 7.09761 36.8087 6.68701 36.8772V21.8218C7.09761 21.7192 7.474 21.5823 7.81616 21.4112C8.36363 21.0691 8.67158 20.6585 8.7058 20.2821Z" fill="#CCCCCC"/>
<path d="M8.7058 18.7423V20.2478C8.63736 20.6584 8.32941 21.069 7.81616 21.377C7.474 21.5823 7.09761 21.7192 6.68701 21.7876V20.2821C7.09761 20.1794 7.474 20.0425 7.81616 19.8715C8.36363 19.5635 8.67158 19.1529 8.7058 18.7423Z" fill="#FF3333"/>
<path d="M9.52683 10.8381V12.0699C9.52683 12.6516 9.15044 13.2332 8.39768 13.6781C6.85792 14.5677 4.3601 14.5677 2.82035 13.6781C2.03337 13.2332 1.65698 12.6516 1.65698 12.0357V10.8039C1.65698 11.3855 2.03337 11.9672 2.82035 12.4463C4.3601 13.3359 6.85792 13.3359 8.39768 12.4463C9.15044 12.0014 9.52683 11.4198 9.52683 10.8381Z" fill="#FF3333"/>
<path d="M8.36361 9.22983C9.90336 10.1195 9.90336 11.5566 8.36361 12.4462C6.85808 13.3358 4.36026 13.3358 2.8205 12.4462C1.28075 11.5566 1.28075 10.1195 2.78629 9.22983C4.32604 8.3402 6.82386 8.3402 8.36361 9.22983Z" fill="#FF6666"/>
<path d="M9.15052 3.37876V10.7354C9.15052 11.2486 8.80836 11.7961 8.12402 12.1725C6.75535 12.9594 4.49705 12.9594 3.09417 12.1725C2.40983 11.7619 2.03345 11.2486 2.03345 10.7011V3.34454C2.03345 3.85779 2.37561 4.40526 3.09417 4.81586C4.49705 5.60285 6.72114 5.60285 8.12402 4.81586C8.80836 4.40526 9.15052 3.89201 9.15052 3.37876Z" fill="#FF3333"/>
<path d="M2.82031 4.64481V12.0014C2.64922 11.8645 2.47814 11.7277 2.37549 11.5908V4.23421C2.51236 4.37107 2.64922 4.50794 2.82031 4.64481Z" fill="#CC0000"/>
<path d="M4.01782 5.19218V12.5488C3.84673 12.5146 3.70986 12.4461 3.573 12.3777V5.05531C3.70986 5.08953 3.84673 5.15796 4.01782 5.19218Z" fill="#CC0000"/>
<path d="M5.18115 5.39753V12.7541C5.04428 12.7541 4.87319 12.7199 4.73633 12.7199V5.36331C4.90741 5.36331 5.04428 5.39753 5.18115 5.39753Z" fill="#CC0000"/>
<path d="M6.3789 5.36331V12.7199C6.24203 12.7541 6.07095 12.7541 5.93408 12.7541V5.39753C6.07095 5.39753 6.24203 5.39753 6.3789 5.36331Z" fill="#CC0000"/>
<path d="M7.57641 5.08957V12.4462C7.43954 12.5146 7.26846 12.5488 7.13159 12.583V5.22644C7.26846 5.19222 7.40533 5.12379 7.57641 5.08957Z" fill="#CC0000"/>
<path d="M8.73974 4.30257V11.6592C8.60287 11.796 8.46601 11.9329 8.29492 12.0355V4.71317C8.46601 4.5763 8.60287 4.43943 8.73974 4.30257Z" fill="#CC0000"/>
<path d="M8.08976 1.90754C9.49264 2.69453 9.49264 3.99476 8.08976 4.81596C6.72109 5.60295 4.46278 5.60295 3.0599 4.81596C1.65701 4.02898 1.65701 2.72874 3.02568 1.90754C4.46278 1.08634 6.72109 1.08634 8.08976 1.90754Z" fill="#FF6666"/>
<path d="M8.80823 1.87336V3.20781C8.80823 3.68684 8.50028 4.16588 7.88438 4.50805C6.61836 5.2266 4.59957 5.2266 3.33356 4.50805C2.68344 4.13166 2.37549 3.65263 2.37549 3.17359V1.83914C2.37549 2.31818 2.68344 2.79721 3.33356 3.17359C4.59957 3.89214 6.61836 3.89214 7.88438 3.17359C8.50028 2.79721 8.80823 2.31818 8.80823 1.87336Z" fill="#FF3333"/>
<path d="M7.85016 0.538913C9.11618 1.25746 9.11618 2.45505 7.85016 3.1736C6.58414 3.89215 4.56536 3.89215 3.29934 3.1736C2.06754 2.45505 2.06754 1.25746 3.29934 0.538913C4.56536 -0.179638 6.58414 -0.179638 7.85016 0.538913Z" fill="#FF6666"/>
<path d="M6.00244 34.0028V35.6795C6.00244 35.8506 5.86558 35.9874 5.69449 35.9874C4.87329 35.9874 4.01788 35.8163 3.40197 35.44C3.05981 35.2347 2.78607 34.9951 2.64921 34.7214C2.61499 34.6872 2.61499 34.6188 2.61499 34.5503V32.6684C2.61499 32.5657 2.75186 32.5315 2.82029 32.6C2.95716 32.771 3.16246 32.9421 3.43619 33.1132C4.05209 33.4896 4.87329 33.6607 5.69449 33.6607C5.83136 33.6607 6.00244 33.7975 6.00244 34.0028Z" fill="#FF6666"/>
<path d="M23.282 16.2444L17.91 2.8999L12.4353 16.4839C12.1616 17.2367 11.9905 17.9895 11.9905 18.8107C11.9905 22.0955 14.6594 24.7302 17.91 24.7302C21.1606 24.7302 23.8637 22.0613 23.8637 18.8107C23.8637 17.8868 23.6584 17.0314 23.282 16.2444Z" fill="#FF3333"/>
<path d="M14.6936 18.8107C14.6936 17.9895 14.8647 17.2367 15.1384 16.5182L19.2444 6.28738L17.91 2.93414L12.4353 16.5182C12.1616 17.2367 11.9905 17.9895 11.9905 18.8107C11.9905 22.0955 14.6594 24.7302 17.91 24.7302C18.389 24.7302 18.8338 24.6618 19.2786 24.5591C16.644 23.9432 14.6936 21.6165 14.6936 18.8107Z" fill="#FF6666"/>
<path d="M29.2016 34.1054L23.9664 31.0943C23.6927 30.9232 23.2137 30.9574 22.9057 31.1285L12.8118 36.9454C12.5038 37.1164 12.4696 37.3902 12.7434 37.5613L14.3173 38.4851L11.4431 40.1617C11.3063 40.2302 11.272 40.367 11.4089 40.4355L12.1275 40.8461L1.72559 46.7998L12.5723 41.154C12.6065 41.154 12.6065 41.1198 12.6065 41.1198L13.7699 41.8041C13.9067 41.8726 14.112 41.8726 14.2489 41.7699L17.1231 40.0933L17.9785 40.5723C18.2523 40.7434 18.7313 40.7092 19.0392 40.5381L29.1332 34.7213C29.4411 34.5502 29.4753 34.2765 29.2016 34.1054Z" fill="#001D86"/>
<path d="M21.7766 29.0412L22.2214 28.7675C22.4952 28.6306 22.8373 28.6306 23.2479 28.8701L22.8031 29.1439C22.3925 28.9386 22.0503 28.9044 21.7766 29.0412Z" fill="#94D6FF"/>
<path d="M22.803 29.1438L23.2478 28.9043L26.6353 30.8547L26.1562 31.0942L22.803 29.1438Z" fill="#94D6FF"/>
<path d="M27.6276 34.2422L27.1828 34.5159C27.4565 34.3791 27.5934 34.0369 27.5934 33.5921C27.5934 32.6682 26.9432 31.5733 26.1562 31.1285L26.6011 30.8548C27.388 31.2996 28.0382 32.4287 28.0382 33.3184C28.0382 33.7632 27.9013 34.0711 27.6276 34.2422Z" fill="#0097F5"/>
<path d="M26.1563 31.0943C26.9433 31.5391 27.5934 32.6682 27.5934 33.5579C27.5934 34.4817 26.9433 34.8239 26.1563 34.3791L22.8031 32.4287C22.0161 31.9839 21.366 30.8548 21.366 29.9651C21.366 29.0413 22.0161 28.6991 22.8031 29.1439L26.1563 31.0943Z" fill="#38B3FF"/>
<path d="M14.0437 34.6871L22.461 29.7941C22.6663 29.6572 22.9743 29.6915 23.3164 29.8625L14.8991 34.7555C14.557 34.5844 14.2832 34.5502 14.0437 34.6871Z" fill="#94D6FF"/>
<path d="M18.2523 38.0745V38.4167C18.2523 38.7931 18.1155 39.0668 17.9102 39.1695L26.3617 34.2765C26.567 34.1396 26.7039 33.9001 26.7039 33.5237V33.1815L18.2523 38.0745Z" fill="#0097F5"/>
<path d="M14.8989 34.7555L23.3162 29.8625L25.5061 31.1286L17.0888 36.0558L14.8989 34.7555Z" fill="#94D6FF"/>
<path d="M17.0889 36.0557L25.5062 31.1285C26.1563 31.5049 26.6695 32.4288 26.6695 33.1815L18.2522 38.0745C18.2865 37.3218 17.739 36.4321 17.0889 36.0557Z" fill="#7ACCFF"/>
<path d="M17.0889 36.0558C17.739 36.4322 18.2522 37.356 18.2522 38.1088V38.451C18.2522 39.2037 17.7048 39.5117 17.0547 39.1353L14.8648 37.8693C14.2147 37.4929 13.7014 36.569 13.7014 35.8163V35.4741C13.7014 34.7213 14.2489 34.4134 14.899 34.7898L17.0889 36.0558Z" fill="#38B3FF"/>
<path d="M13.7356 36.9796L15.2411 36.0557C15.378 35.9873 15.5833 35.9873 15.8228 36.1242C16.2676 36.3979 16.644 37.0138 16.644 37.527C16.644 37.8008 16.5414 37.9719 16.4045 38.0745L14.899 38.9984C15.0358 38.9299 15.1385 38.7246 15.1385 38.4509C15.1385 37.9376 14.7621 37.2875 14.3173 37.048C14.112 36.9111 13.9067 36.9111 13.7356 36.9796Z" fill="#008AE0"/>
<path d="M13.4961 37.527C13.4961 37.0137 13.8725 36.8084 14.3173 37.048C14.7621 37.3217 15.1385 37.9376 15.1385 38.4508C15.1385 38.9641 14.7621 39.1694 14.3173 38.9299C13.8725 38.6561 13.4961 38.0402 13.4961 37.527Z" fill="#FF6666"/>
<path d="M13.188 36.9794L13.7012 36.6714C13.8723 36.5688 14.1461 36.5688 14.4198 36.7398C14.9673 37.0478 15.4463 37.869 15.4463 38.5191C15.4463 38.8613 15.3436 39.0666 15.1383 39.1692L14.6251 39.4772C14.7962 39.3745 14.933 39.135 14.933 38.8271C14.933 38.1769 14.4882 37.39 13.9065 37.0478C13.6328 36.8767 13.3933 36.8767 13.188 36.9794Z" fill="#00E855"/>
<path d="M12.9143 37.6294C12.9143 36.9793 13.3591 36.7056 13.9408 37.0478C14.4883 37.3557 14.9673 38.1769 14.9673 38.827C14.9673 39.4771 14.5225 39.7509 13.9408 39.4087C13.3591 39.0665 12.9143 38.2796 12.9143 37.6294Z" fill="#00AD40"/>
<path d="M12.6405 37.5953C12.6063 37.5611 12.5721 37.5611 12.5379 37.5953L11.614 38.1427C11.6482 38.1427 11.6824 38.1427 11.7167 38.1427L12.2983 38.4849L13.2222 37.9374L12.6405 37.5953Z" fill="#00E855"/>
<path d="M12.8802 39.443V40.1615C12.8802 40.1957 12.8802 40.23 12.8459 40.23L13.7698 39.6825C13.804 39.6825 13.804 39.6483 13.804 39.6141V38.8955L12.8802 39.443Z" fill="#008531"/>
<path d="M14.0093 38.8955L13.0854 39.443C13.1197 39.4088 13.1539 39.3746 13.1881 39.3061L14.112 38.7587C14.0777 38.8271 14.0435 38.8613 14.0093 38.8955Z" fill="#008531"/>
<path d="M12.4011 38.3139L13.325 37.7664C13.3934 37.7322 13.4618 37.7322 13.5303 37.7322L12.6064 38.2796C12.538 38.2796 12.4696 38.2796 12.4011 38.3139Z" fill="#00E855"/>
<path d="M12.8801 38.4507L13.804 37.9033C13.9751 38.0401 14.0777 38.2796 14.1119 38.4849L13.1881 39.0324C13.1539 38.7929 13.017 38.5876 12.8801 38.4507Z" fill="#00E855"/>
<path d="M13.188 38.9981L14.1118 38.4507L14.7277 38.7928L13.7697 39.3403L13.188 38.9981Z" fill="#00E855"/>
<path d="M12.8801 37.8005L13.804 37.2531V37.9032L12.8801 38.4507V37.8005Z" fill="#008531"/>
<path d="M14.7963 39.1008L13.8724 39.6483C13.9066 39.6483 13.9066 39.614 13.9066 39.5798C13.9066 39.5114 13.8382 39.4087 13.7698 39.3403L14.6936 38.7928C14.7621 38.8271 14.8305 38.9297 14.8305 39.0324C14.8305 39.0666 14.8305 39.1008 14.7963 39.1008Z" fill="#008531"/>
<path d="M12.7433 37.561C12.8117 37.5953 12.8801 37.6979 12.8801 37.8006V38.4507C13.0512 38.5876 13.1539 38.8271 13.1881 39.0324L13.7698 39.3745C13.8382 39.4088 13.9066 39.5114 13.9066 39.6141C13.9066 39.6825 13.8382 39.7167 13.7698 39.6825L13.1539 39.3403C13.1197 39.4772 12.9828 39.5114 12.8459 39.4772V40.1957C12.8459 40.2642 12.7775 40.2984 12.7091 40.2642C12.6406 40.23 12.5722 40.1273 12.5722 40.0247V39.3061C12.4353 39.1692 12.3327 38.9982 12.2642 38.8271L11.6483 38.4849C11.5799 38.4507 11.5115 38.348 11.5115 38.2454C11.5115 38.177 11.5799 38.1427 11.6483 38.1769L12.23 38.5191C12.2642 38.348 12.4011 38.2796 12.538 38.3138V37.6637C12.6064 37.561 12.6748 37.5268 12.7433 37.561Z" fill="#00AD40"/>
<path d="M13.6671 37.0136C13.6329 36.9794 13.5987 36.9794 13.5645 37.0136L12.6406 37.5611C12.6748 37.5611 12.7091 37.5611 12.7433 37.5611C12.8117 37.5953 12.8801 37.6979 12.8801 37.8006L13.804 37.2531C13.804 37.1505 13.7698 37.0478 13.6671 37.0136Z" fill="#00E855"/>
<path d="M12.3325 38.6218L12.5036 38.5191C12.572 38.4849 12.6405 38.4849 12.7089 38.5534C12.88 38.656 13.0169 38.8955 13.0169 39.1008C13.0169 39.2035 12.9826 39.2719 12.9142 39.3061L12.7431 39.4088C12.8116 39.3746 12.8458 39.3061 12.8458 39.2035C12.8458 38.9982 12.7089 38.7587 12.5378 38.656C12.4694 38.5876 12.401 38.5876 12.3325 38.6218Z" fill="#00E855"/>
<path d="M12.2642 38.8271C12.2642 38.6218 12.401 38.5534 12.5721 38.656C12.7432 38.7587 12.8801 38.9982 12.8801 39.2035C12.8801 39.4088 12.7432 39.4772 12.5721 39.3746C12.401 39.2719 12.2642 39.0324 12.2642 38.8271Z" fill="#008531"/>
<path d="M12.6749 38.9984C12.6065 38.8615 12.4696 38.8273 12.3328 38.8957L1.72559 44.9521L12.5723 39.3063C12.6749 39.2379 12.7092 39.101 12.6749 38.9984Z" fill="#CCCCCC"/>
</svg>
