<svg width="93" height="93" viewBox="0 0 93 93" fill="none" xmlns="http://www.w3.org/2000/svg">
<path d="M58.1255 65.875C55.0273 68.2867 50.9577 69.75 46.5005 69.75C42.0433 69.75 37.9736 68.2867 34.8755 65.875" stroke="#07273D" stroke-width="6" stroke-linecap="round"/>
<path d="M9.11213 51.2021C7.74418 42.3004 7.0602 37.8496 8.74313 33.9038C10.4261 29.9581 14.1598 27.2584 21.6274 21.8591L27.2068 17.825C36.4964 11.1083 41.1411 7.75 46.5005 7.75C51.8598 7.75 56.5046 11.1083 65.7942 17.825L71.3736 21.8591C78.8411 27.2584 82.5749 29.9581 84.2578 33.9038C85.9408 37.8496 85.2568 42.3004 83.8888 51.2021L82.7223 58.793C80.7831 71.4121 79.8135 77.7216 75.2879 81.4858C70.7622 85.25 64.1459 85.25 50.9134 85.25H42.0876C28.855 85.25 22.2388 85.25 17.7131 81.4858C13.1875 77.7216 12.2179 71.4121 10.2786 58.793L9.11213 51.2021Z" stroke="#07273D" stroke-width="6" stroke-linejoin="round"/>
</svg>
