<svg width="23" height="36" viewBox="0 0 23 36" fill="none" xmlns="http://www.w3.org/2000/svg">
<path d="M13.3912 10.1049C13.2005 10.1049 12.9939 10.0697 12.8032 9.99942C12.3265 9.82368 11.9292 9.45463 11.7068 8.96255C11.4843 8.47048 11.4366 7.9081 11.5955 7.36331C11.9133 6.27371 12.978 5.67619 13.9792 6.02767C14.9644 6.37916 15.5047 7.5742 15.1869 8.66379C14.9326 9.5425 14.1858 10.1049 13.3912 10.1049ZM13.3912 6.71307C13.2164 6.71307 13.0257 6.76579 12.8668 6.85366C12.5808 7.01182 12.3742 7.27544 12.2788 7.60934C12.1835 7.94325 12.1994 8.29473 12.3424 8.61107C12.4854 8.9274 12.7238 9.15587 13.0257 9.26131C13.6455 9.48977 14.3129 9.10314 14.5036 8.43533C14.5989 8.10142 14.583 7.74994 14.44 7.4336C14.297 7.11727 14.0586 6.88881 13.7567 6.78336C13.6455 6.73064 13.5183 6.71307 13.3912 6.71307Z" fill="white"/>
<path d="M14.1695 8.29475C14.0264 8.76925 13.5656 9.03286 13.1365 8.87469C12.7075 8.71652 12.4691 8.20687 12.6121 7.73237C12.7552 7.25787 13.216 6.99426 13.645 7.15243C14.0741 7.31059 14.3125 7.82024 14.1695 8.29475Z" fill="#E5EEF9"/>
<path d="M14.0746 3.60247C14.0428 3.60247 13.9951 3.60247 13.9633 3.5849L11.9769 2.86436C11.7863 2.79406 11.6909 2.58317 11.7545 2.37228L12.2948 0.527001C12.406 0.122797 12.8033 -0.0880924 13.1529 0.0349263L14.5195 0.527001C14.6943 0.597298 14.8373 0.720316 14.9168 0.896058C14.9962 1.0718 15.0121 1.28269 14.9645 1.476L14.4242 3.33886C14.3606 3.49703 14.2335 3.60247 14.0746 3.60247ZM12.5331 2.24926L13.8521 2.72376L14.2811 1.26511L12.9622 0.790613L12.5331 2.24926Z" fill="white"/>
<path d="M10.1336 18.5053C10.0542 18.5053 9.97471 18.4877 9.89526 18.4702L7.32092 17.5387C6.90775 17.3981 6.68528 16.9061 6.8283 16.4667L7.03488 15.7813C7.09844 15.5528 7.32092 15.4298 7.51161 15.5177L10.8328 16.6952C11.0394 16.7655 11.1506 17.0115 11.0712 17.2224L10.8646 17.9078C10.7693 18.2768 10.4673 18.5053 10.1336 18.5053ZM7.63874 16.4316L7.55928 16.7127L10.1336 17.6617H10.1495L10.229 17.3806L7.63874 16.4316Z" fill="white"/>
<path d="M9.7521 22.0201C9.70443 22.0201 9.65676 22.0201 9.59319 22.0026L0.4082 19.1204C0.265181 19.0677 0.138053 18.9622 0.074489 18.8216C-0.00496593 18.681 -0.0208569 18.5053 0.026816 18.3471L0.138053 17.9429C0.185726 17.7848 0.265181 17.6442 0.4082 17.5739C0.535328 17.486 0.694238 17.4684 0.837256 17.5212L10.0064 20.3857C10.1494 20.4385 10.2765 20.5263 10.3401 20.6845C10.4195 20.8251 10.4354 21.0008 10.3877 21.159L10.2765 21.5632C10.2288 21.7214 10.1335 21.862 10.0064 21.9323C9.94279 21.985 9.84745 22.0201 9.7521 22.0201ZM0.662456 18.1011L0.535328 18.5229L9.73621 21.4226C9.73621 21.4226 9.7521 21.4226 9.7521 21.405L9.86334 21.0008L0.662456 18.1011Z" fill="white"/>
<path d="M17.7138 33.2851H12.4856C12.279 33.2851 12.1042 33.0918 12.1042 32.8633V27.5208C12.1042 25.6931 13.455 24.1993 15.1076 24.1993C16.7603 24.1993 18.111 25.6931 18.111 27.5208V32.8633C18.0952 33.0918 17.9362 33.2851 17.7138 33.2851ZM12.867 32.4416H17.3324V27.5208C17.3324 26.15 16.3313 25.0429 15.0918 25.0429C13.8523 25.0429 12.8511 26.15 12.8511 27.5208V32.4416H12.867Z" fill="white"/>
<path d="M10.7054 17.5212C10.6577 17.5212 10.6259 17.5212 10.5941 17.5036L7.27292 16.3085C7.06634 16.2382 6.9551 15.9922 7.03456 15.7813L10.038 5.62348C10.1015 5.39502 10.324 5.28958 10.5147 5.35987C10.7213 5.43017 10.8325 5.67621 10.753 5.8871L7.87678 15.6407L10.467 16.5722L12.4534 9.85884C12.1356 9.64795 11.8654 9.34919 11.6906 8.98014C11.4523 8.47049 11.4205 7.90812 11.5794 7.36332C11.8654 6.39674 12.7394 5.79922 13.6134 5.92224L14.1696 4.02424C14.1855 3.95394 14.1855 3.86607 14.1537 3.79578C14.1219 3.72548 14.0584 3.67276 13.9948 3.65518L11.9131 2.8995C11.7701 2.84677 11.6112 2.93465 11.5794 3.09281L11.341 3.91879C11.2775 4.14726 11.055 4.27028 10.8643 4.18241C10.6577 4.11211 10.5465 3.86607 10.6259 3.65518L10.8643 2.8292C11.0391 2.23168 11.6271 1.89777 12.1673 2.09109L14.2491 2.84677C14.7894 3.04009 15.0913 3.69033 14.9165 4.28785L14.2491 6.55491C14.1855 6.78337 13.963 6.88882 13.7723 6.81852C13.4863 6.71308 13.1685 6.73065 12.8983 6.88882C12.6282 7.04699 12.4216 7.3106 12.3263 7.62693C12.2309 7.94327 12.2468 8.29475 12.3898 8.59351C12.5328 8.89227 12.7712 9.12073 13.0572 9.22618C13.1526 9.26132 13.232 9.33162 13.2797 9.43707C13.3274 9.54251 13.3274 9.64795 13.2956 9.7534L11.0709 17.24C11.0391 17.3454 10.9755 17.4333 10.8802 17.486C10.8325 17.5036 10.7689 17.5212 10.7054 17.5212Z" fill="white"/>
<path d="M17.6179 27.099C17.5703 27.099 17.5385 27.099 17.4908 27.0815C17.3796 27.0463 17.3001 26.9409 17.2683 26.8179C17.1571 26.3961 16.9346 25.9919 16.6327 25.6931C16.5532 25.6052 16.5056 25.4998 16.5215 25.3768C16.5374 25.2538 16.585 25.1483 16.6804 25.078C18.9369 23.4788 20.2876 20.7724 20.2876 17.8199C20.2876 13.9009 17.8881 10.4739 14.4556 9.50735C14.3444 9.47221 14.2491 9.36676 14.2014 9.24374C14.1696 9.12072 14.1855 8.98013 14.2649 8.87469C14.3603 8.75167 14.4397 8.5935 14.4874 8.43533C14.5033 8.38261 14.5033 8.32989 14.5192 8.27717C14.5351 8.17172 14.5987 8.06628 14.6781 7.99598C14.7576 7.94326 14.8688 7.90811 14.9641 7.92568C19.1435 9.17345 22.0515 13.4088 22.0515 18.189C22.0515 21.7389 20.4465 25.0429 17.7769 27.0287C17.7451 27.0815 17.6815 27.099 17.6179 27.099ZM17.4273 25.4646C17.5703 25.658 17.6815 25.8689 17.7769 26.0973C20.0334 24.2345 21.3682 21.3172 21.3682 18.189C21.3682 13.8833 18.8257 10.0873 15.139 8.80439C15.1231 8.83954 15.1231 8.85711 15.1072 8.89226C18.6032 10.1224 21.0027 13.7251 21.0027 17.8199C21.0027 20.8778 19.6679 23.7072 17.4273 25.4646Z" fill="white"/>
<path d="M16.331 27.679C16.331 28.4347 15.7748 29.0322 15.1074 29.0322C14.4241 29.0322 13.8838 28.4171 13.8838 27.679C13.8838 26.9409 14.44 26.3258 15.1074 26.3258C15.7748 26.3258 16.331 26.9233 16.331 27.679Z" fill="#E5EEF9"/>
<path d="M12.4693 28.8389C9.11635 28.8389 6.04939 26.9409 4.28549 23.76C4.20603 23.6369 4.22192 23.4612 4.28549 23.3382C4.34905 23.2152 4.49207 23.1449 4.63509 23.1624C4.80989 23.1976 4.92113 23.1976 5.08004 23.1624C5.3184 23.1097 5.54087 23.0043 5.73157 22.8461C5.81102 22.7758 5.90637 22.7407 6.00171 22.7582C6.09706 22.7758 6.1924 22.8285 6.24008 22.9164C7.70205 25.1132 10.038 26.4312 12.5011 26.4312C12.517 26.4312 12.5488 26.4312 12.5488 26.4312C12.66 26.4136 12.7554 26.4839 12.8348 26.5718C12.8984 26.6597 12.9302 26.8003 12.8984 26.9057C12.8507 27.1166 12.8348 27.3275 12.8348 27.5208V28.4347C12.8348 28.6456 12.6759 28.8213 12.4852 28.8213C12.5011 28.8389 12.4693 28.8389 12.4693 28.8389ZM5.23895 23.9357C6.84394 26.4312 9.3706 27.9426 12.1356 28.048V27.5384C12.1356 27.4329 12.1356 27.3275 12.1515 27.2221C9.7202 27.099 7.41601 25.8161 5.89048 23.6897C5.68389 23.7951 5.46142 23.883 5.23895 23.9357Z" fill="white"/>
<path d="M4.85762 23.9708C3.69758 23.9708 2.76001 22.934 2.76001 21.6511C2.76001 20.8778 3.10961 20.1573 3.68169 19.7355C3.76114 19.6652 3.87238 19.6476 3.98362 19.6828L5.38202 20.1221L6.54206 20.4912C6.63741 20.5263 6.73276 20.5966 6.76454 20.7021C6.89167 21.0184 6.95523 21.3347 6.95523 21.6686C6.95523 22.934 6.00177 23.9708 4.85762 23.9708ZM3.95183 20.4736C3.64991 20.7724 3.45921 21.1941 3.45921 21.6335C3.45921 22.477 4.07896 23.18 4.85762 23.18C5.62039 23.18 6.25603 22.4946 6.25603 21.6335C6.25603 21.4753 6.24014 21.3172 6.19246 21.159L3.95183 20.4736Z" fill="white"/>
<path d="M20.1451 32.4416H7.94083C7.73425 32.4416 7.55945 32.6349 7.55945 32.8634C7.55945 33.0918 7.73425 33.2851 7.94083 33.2851H20.161C20.8284 33.2851 21.3687 33.8827 21.3528 34.6208C21.3528 34.7965 21.2098 34.9195 21.0509 34.9195H3.36423C3.20532 34.9195 3.07819 34.7789 3.0623 34.6208C3.04641 33.8827 3.5867 33.2851 4.25412 33.2851H5.36649C5.57307 33.2851 5.74787 33.0918 5.74787 32.8634C5.74787 32.6349 5.57307 32.4416 5.36649 32.4416H4.25412C3.15764 32.4416 2.28364 33.4257 2.29953 34.6383C2.29953 35.271 2.79215 35.7807 3.36423 35.7807H21.0509C21.623 35.7807 22.0997 35.271 22.1156 34.6383C22.1315 33.4257 21.2416 32.4416 20.1451 32.4416Z" fill="white"/>
</svg>
