<svg width="21" height="29" viewBox="0 0 21 29" fill="none" xmlns="http://www.w3.org/2000/svg">
<path d="M0.682917 28.4435C0.221948 28.2557 0.0341458 27.9313 0.0512187 27.4191C0.0682917 25.4899 0.0512187 23.5435 0.0512187 21.6143C0.0512187 21.5119 0.0512187 21.4094 0.0682917 21.307C0.102437 21.1021 0.221948 20.9997 0.426823 20.9826C0.631698 20.9655 0.785354 21.0509 0.853646 21.2558C0.887791 21.3753 0.887792 21.4948 0.887792 21.6143C0.887792 23.4923 0.887792 25.3533 0.887792 27.2313C0.887792 27.3337 0.887792 27.4532 0.887792 27.5898C6.98282 27.5898 13.0608 27.5898 19.1558 27.5898C19.1558 19.2753 19.1558 10.9437 19.1558 2.59508C17.9266 2.59508 16.7144 2.59508 15.4681 2.59508C15.4681 2.76581 15.4681 2.91947 15.4681 3.12434C15.5705 3.12434 15.6729 3.14142 15.7583 3.14142C16.39 3.14142 17.0388 3.14142 17.6705 3.14142C18.2509 3.14142 18.5924 3.48287 18.5924 4.06335C18.5924 5.77064 18.5924 7.47794 18.5924 9.16815C18.5924 9.49254 18.4217 9.68034 18.1656 9.68034C17.9095 9.68034 17.7729 9.49254 17.7558 9.18523C17.7558 9.11694 17.7558 9.03157 17.7558 8.96328C17.7558 7.42672 17.7558 5.89015 17.7558 4.35359C17.7558 4.25116 17.7558 4.13164 17.7558 3.99506C16.9705 3.99506 16.2193 3.99506 15.4168 3.99506C15.4168 4.37067 15.3998 4.7292 15.4168 5.08773C15.4851 6.1121 15.0412 6.59014 13.9315 6.57307C11.2169 6.53893 8.51938 6.556 5.80479 6.556C4.96822 6.556 4.57554 6.16332 4.57554 5.34382C4.57554 4.89993 4.57554 4.45603 4.57554 3.99506C3.79019 3.99506 3.03898 3.99506 2.2707 3.99506C2.2707 11.3876 2.2707 18.7973 2.2707 26.224C2.37313 26.224 2.49265 26.224 2.59508 26.224C5.78772 26.224 8.99743 26.1898 12.1901 26.2411C13.4022 26.2581 14.5803 25.4386 14.3754 23.7826C14.273 23.7826 14.1705 23.7826 14.0681 23.7826C11.9681 23.7826 9.85107 23.7826 7.7511 23.7826C7.66574 23.7826 7.58037 23.7826 7.49501 23.7826C7.27306 23.7484 7.13648 23.6118 7.1194 23.3899C7.10233 23.1679 7.22184 23.0143 7.44379 22.9631C7.54623 22.946 7.64866 22.946 7.7511 22.946C10.0559 22.946 12.3608 22.946 14.6486 22.946C15.1437 22.946 15.6388 22.9118 16.1168 22.8436C17.0558 22.707 17.7046 21.9558 17.7388 20.9997C17.7558 20.368 17.7388 19.7192 17.7388 19.0875C17.7388 16.5266 17.7388 13.9827 17.7388 11.4218C17.7388 10.995 17.8753 10.7901 18.1485 10.7901C18.4387 10.773 18.5753 10.995 18.5753 11.4389C18.5753 14.5803 18.5753 17.7217 18.5753 20.846C18.5753 23.8509 16.6461 26.2752 13.7437 26.924C13.3169 27.0264 12.8559 27.0606 12.412 27.0606C9.06572 27.0776 5.71943 27.0606 2.35606 27.0606C1.72436 27.0606 1.38291 26.7191 1.38291 26.1045C1.38291 18.7631 1.38291 11.4218 1.38291 4.08043C1.38291 3.48287 1.72436 3.14142 2.33899 3.14142C3.05605 3.14142 3.79019 3.14142 4.52432 3.14142C4.52432 2.95361 4.52432 2.79996 4.52432 2.61216C3.29507 2.61216 2.06582 2.61216 0.8195 2.61216C0.8195 2.74874 0.8195 2.86825 0.8195 2.98776C0.8195 8.3828 0.8195 13.7778 0.8195 19.1729C0.8195 19.3095 0.8195 19.429 0.802427 19.5656C0.751208 19.7875 0.597552 19.8899 0.375604 19.8729C0.170729 19.8558 0.0341458 19.7363 0 19.5143C0.0512187 19.4119 0.0512187 19.3265 0.0512187 19.2241C0.0512187 13.7266 0.0512187 8.24622 0.0512187 2.74874C0.0512187 2.0146 0.341458 1.72436 1.09267 1.72436C2.21948 1.72436 3.36336 1.72436 4.49018 1.72436C4.62676 1.72436 4.74627 1.639 4.88285 1.58778C5.07065 1.51949 5.25846 1.43412 5.44626 1.41705C6.2999 1.39998 7.15355 1.39998 8.0072 1.41705C8.14378 1.41705 8.22914 1.39998 8.29744 1.24632C8.60475 0.443896 9.25352 0 10.0559 0C10.8584 0 11.4901 0.478042 11.7974 1.28047C11.8145 1.31461 11.8315 1.36583 11.8486 1.41705C12.7022 1.41705 13.5559 1.41705 14.4095 1.41705C14.7339 1.41705 15.0583 1.39998 15.3144 1.69022C15.3656 1.74144 15.5022 1.74144 15.6046 1.74144C16.7485 1.74144 17.9095 1.74144 19.0534 1.74144C19.7192 1.74144 20.0265 2.04875 20.0265 2.69752C20.0265 10.9608 20.0265 19.207 20.0265 27.4703C20.0265 27.9484 19.8217 28.2557 19.3948 28.4264C13.1632 28.4435 6.9316 28.4435 0.682917 28.4435ZM14.6144 2.25362C13.6754 2.25362 12.7705 2.25362 11.8486 2.25362C11.3535 2.25362 11.1486 2.09997 11.012 1.60485C10.8754 1.12681 10.4998 0.8195 10.0218 0.8195C9.56083 0.8195 9.18523 1.10974 9.04864 1.58778C8.89499 2.09997 8.70719 2.23655 8.16085 2.23655C7.35843 2.23655 6.53893 2.23655 5.7365 2.23655C5.63406 2.23655 5.5487 2.25362 5.44626 2.25362C5.44626 2.93654 5.44626 3.56824 5.44626 4.21701C5.51455 4.25116 5.51455 4.26823 5.53162 4.26823C5.7365 4.26823 5.95845 4.26823 6.16332 4.26823C6.48771 4.26823 6.67551 4.42188 6.67551 4.67798C6.67551 4.93407 6.47063 5.08773 6.14625 5.08773C5.9243 5.08773 5.68528 5.08773 5.46333 5.08773C5.37797 5.65113 5.42919 5.70235 5.9243 5.70235C8.65597 5.70235 11.3706 5.70235 14.1022 5.70235C14.1705 5.70235 14.2559 5.70235 14.3242 5.70235C14.4949 5.70235 14.5803 5.61699 14.5803 5.44626C14.5803 5.32675 14.5803 5.20724 14.5803 5.08773C14.4266 5.08773 14.3242 5.08773 14.2047 5.08773C12.2584 5.08773 10.3291 5.08773 8.3828 5.08773C8.26329 5.08773 8.09256 5.1048 8.0072 5.03651C7.88769 4.93407 7.76818 4.74627 7.78525 4.62676C7.80232 4.49018 7.97305 4.37067 8.10963 4.2853C8.17793 4.23408 8.29744 4.26823 8.3828 4.26823C10.3291 4.26823 12.2754 4.26823 14.2217 4.26823C14.3242 4.26823 14.4437 4.26823 14.5632 4.26823C14.6144 3.58531 14.6144 2.93654 14.6144 2.25362ZM15.3485 23.7826C15.2632 24.363 15.1607 24.9777 15.0754 25.5582C15.9461 25.063 16.6632 24.363 17.1412 23.4923C16.5437 23.5948 15.9461 23.6801 15.3485 23.7826Z" fill="white"/>
<path d="M11.4047 8.89496C11.7803 8.89496 12.1218 8.89496 12.4632 8.89496C12.9925 8.89496 13.1974 9.09984 13.1974 9.6291C13.1974 10.0559 13.1974 10.4998 13.1974 10.9266C13.1974 11.4047 12.9925 11.5925 12.5144 11.6096C12.173 11.6096 11.8486 11.6096 11.5071 11.6096C11.4901 11.6096 11.473 11.6266 11.4047 11.6437C11.4047 11.8657 11.4047 12.1047 11.4047 12.3266C11.4047 12.4803 11.4047 12.6339 11.4047 12.8047C11.3876 13.1803 11.1828 13.3851 10.8072 13.3851C10.312 13.3851 9.79986 13.3851 9.30474 13.3851C8.89499 13.3851 8.69012 13.1803 8.69012 12.7705C8.67304 12.3949 8.69012 12.0364 8.69012 11.6096C8.33159 11.6096 7.99013 11.6096 7.64867 11.6096C7.08526 11.6096 6.89746 11.4388 6.89746 10.8583C6.89746 10.4486 6.89746 10.0388 6.89746 9.6291C6.89746 9.06569 7.08526 8.87789 7.64867 8.87789C7.97305 8.87789 8.31451 8.87789 8.69012 8.87789C8.69012 8.53643 8.69012 8.21205 8.69012 7.88766C8.69012 7.27304 8.86085 7.08524 9.47547 7.08524C9.90229 7.08524 10.3291 7.08524 10.7559 7.08524C11.1998 7.08524 11.4047 7.29011 11.4218 7.73401C11.4047 8.12668 11.4047 8.50229 11.4047 8.89496ZM10.5681 12.5486C10.5681 12.2071 10.5681 11.8827 10.5681 11.5583C10.5681 10.9608 10.7559 10.773 11.3364 10.773C11.6608 10.773 12.0023 10.773 12.3266 10.773C12.3266 10.3974 12.3266 10.073 12.3266 9.71446C11.9681 9.71446 11.6267 9.71446 11.2852 9.71446C10.7559 9.71446 10.5681 9.52666 10.5681 8.9974C10.5681 8.65594 10.5681 8.29741 10.5681 7.95595C10.1925 7.95595 9.86815 7.95595 9.50962 7.95595C9.50962 8.33156 9.50962 8.69009 9.50962 9.04862C9.50962 9.52666 9.30474 9.71446 8.8267 9.71446C8.46817 9.71446 8.10964 9.71446 7.73403 9.71446C7.73403 10.0901 7.73403 10.4145 7.73403 10.773C7.97305 10.773 8.21208 10.773 8.43402 10.773C9.42425 10.773 9.49254 10.8413 9.49254 11.8144C9.49254 12.0535 9.49254 12.2925 9.49254 12.5315C9.88522 12.5486 10.2096 12.5486 10.5681 12.5486Z" fill="white"/>
<path d="M11.6778 19.0875C12.9583 19.0875 14.2558 19.0875 15.5363 19.0875C15.6387 19.0875 15.7411 19.0875 15.8436 19.1046C16.0485 19.1387 16.1509 19.2582 16.168 19.4631C16.185 19.668 16.0997 19.8216 15.8948 19.8899C15.7924 19.9241 15.6728 19.9241 15.5704 19.9241C12.9753 19.9241 10.3802 19.9241 7.78516 19.9241C7.68273 19.9241 7.56322 19.9241 7.46078 19.8899C7.2559 19.8216 7.13639 19.668 7.18761 19.4631C7.23883 19.3265 7.37541 19.207 7.512 19.1046C7.58029 19.0534 7.71687 19.0875 7.81931 19.0875C9.09978 19.0875 10.3973 19.0875 11.6778 19.0875Z" fill="white"/>
<path d="M11.6778 16.0656C10.3802 16.0656 9.08267 16.0656 7.78513 16.0656C7.69976 16.0656 7.6144 16.0656 7.52903 16.0656C7.32416 16.0315 7.1705 15.8949 7.18758 15.69C7.20465 15.5364 7.34123 15.3998 7.44367 15.2803C7.49489 15.2291 7.6144 15.2461 7.71684 15.2461C10.3631 15.2461 13.0094 15.2461 15.6387 15.2461C15.6899 15.2461 15.724 15.2461 15.7753 15.2461C16.0313 15.2803 16.185 15.451 16.185 15.69C16.1679 15.912 16.0143 16.0656 15.7582 16.0827C15.5704 16.0827 15.3655 16.0827 15.1777 16.0827C14.0167 16.0656 12.8387 16.0656 11.6778 16.0656Z" fill="white"/>
<path d="M6.48777 15.7071C6.48777 15.9461 6.48777 16.168 6.48777 16.4071C6.4707 16.7485 6.24875 16.9875 5.90729 17.0046C5.42925 17.0217 4.95121 17.0217 4.45609 17.0046C4.13171 16.9875 3.90976 16.7656 3.89269 16.4412C3.87561 15.9632 3.87561 15.4851 3.89269 15.0071C3.90976 14.6485 4.13171 14.4437 4.50731 14.4266C4.96828 14.4095 5.41218 14.4095 5.87315 14.4266C6.26582 14.4437 6.4707 14.6827 6.48777 15.0583C6.48777 15.2632 6.48777 15.4851 6.48777 15.7071ZM5.63412 16.151C5.63412 15.8266 5.63412 15.5363 5.63412 15.2461C5.32681 15.2461 5.05365 15.2461 4.76341 15.2461C4.76341 15.5534 4.76341 15.8607 4.76341 16.151C5.05365 16.151 5.32681 16.151 5.63412 16.151Z" fill="white"/>
<path d="M6.48779 19.4631C6.48779 19.7021 6.48779 19.9241 6.48779 20.1631C6.47071 20.5216 6.24877 20.7607 5.90731 20.7777C5.42927 20.7948 4.9683 20.7948 4.49026 20.7777C4.1488 20.7607 3.92685 20.5558 3.90978 20.2314C3.8927 19.7363 3.8927 19.2582 3.90978 18.7631C3.92685 18.4217 4.1488 18.1997 4.50733 18.1997C4.9683 18.1827 5.42927 18.1827 5.89024 18.1997C6.26584 18.2168 6.48779 18.4558 6.48779 18.8314C6.48779 19.0192 6.48779 19.2412 6.48779 19.4631ZM4.74635 19.9241C5.05366 19.9241 5.3439 19.9241 5.63414 19.9241C5.63414 19.6168 5.63414 19.3265 5.63414 19.0192C5.32683 19.0192 5.03659 19.0192 4.74635 19.0192C4.74635 19.3265 4.74635 19.6168 4.74635 19.9241Z" fill="white"/>
<path d="M6.48779 23.2533C6.48779 23.4923 6.48779 23.7143 6.48779 23.9533C6.47071 24.3118 6.24877 24.5509 5.90731 24.5679C5.42927 24.585 4.9683 24.585 4.49026 24.5679C4.1488 24.5679 3.92685 24.346 3.90978 24.0216C3.8927 23.5265 3.8927 23.0484 3.90978 22.5533C3.92685 22.2119 4.1488 22.007 4.47318 21.9899C4.95122 21.9728 5.42927 21.9728 5.90731 21.9899C6.26584 22.007 6.47071 22.246 6.47071 22.6045C6.48779 22.8094 6.48779 23.0314 6.48779 23.2533ZM5.63414 22.8094C5.32683 22.8094 5.03659 22.8094 4.74635 22.8094C4.74635 23.1167 4.74635 23.407 4.74635 23.6972C5.05366 23.6972 5.3439 23.6972 5.63414 23.6972C5.63414 23.3899 5.63414 23.0997 5.63414 22.8094Z" fill="white"/>
<path d="M10.056 1.43417C10.2779 1.43417 10.4487 1.6049 10.4657 1.84392C10.4657 2.08294 10.2779 2.27075 10.056 2.25367C9.81697 2.25367 9.64624 2.0488 9.64624 1.82685C9.64624 1.58783 9.81697 1.43417 10.056 1.43417Z" fill="white"/>
</svg>
