<svg width="17" height="17" viewBox="0 0 17 17" fill="none" xmlns="http://www.w3.org/2000/svg">
<path d="M15.0998 5.05847L14.7502 4.45171C14.4858 3.99283 14.3536 3.76339 14.1286 3.6719C13.9037 3.5804 13.6492 3.6526 13.1404 3.79699L12.2761 4.04044C11.9512 4.11535 11.6104 4.07286 11.3138 3.92046L11.0752 3.78278C10.8208 3.61987 10.6252 3.37968 10.5169 3.09734L10.2804 2.39086C10.1248 1.92334 10.0471 1.68959 9.86192 1.55588C9.67678 1.42218 9.43086 1.42218 8.93902 1.42218H8.14939C7.65755 1.42218 7.41163 1.42218 7.22649 1.55588C7.04135 1.68959 6.96359 1.92334 6.80805 2.39086L6.5715 3.09734C6.46321 3.37968 6.26757 3.61987 6.01322 3.78278L5.7746 3.92046C5.47798 4.07286 5.13717 4.11535 4.81232 4.04044L3.94799 3.79699C3.43917 3.6526 3.18476 3.5804 2.95981 3.6719C2.73486 3.76339 2.60265 3.99283 2.33824 4.45171L1.98861 5.05847C1.74076 5.4886 1.61683 5.70367 1.64088 5.93262C1.66494 6.16156 1.83084 6.34606 2.16264 6.71506L2.89297 7.53156C3.07146 7.75754 3.19819 8.15135 3.19819 8.5054C3.19819 8.85968 3.07151 9.25338 2.89298 9.47939L2.16265 10.2959C1.83084 10.6649 1.66494 10.8494 1.64089 11.0784C1.61683 11.3073 1.74076 11.5224 1.98861 11.9525L2.33823 12.5592C2.60264 13.0181 2.73486 13.2476 2.95981 13.3391C3.18476 13.4306 3.43918 13.3584 3.948 13.214L4.81229 12.9705C5.1372 12.8956 5.47807 12.9381 5.77472 13.0905L6.01331 13.2282C6.26761 13.3911 6.46321 13.6313 6.57148 13.9136L6.80805 14.6202C6.96359 15.0877 7.04135 15.3214 7.22649 15.4551C7.41163 15.5888 7.65755 15.5888 8.14939 15.5888H8.93902C9.43086 15.5888 9.67678 15.5888 9.86192 15.4551C10.0471 15.3214 10.1248 15.0877 10.2804 14.6202L10.5169 13.9136C10.6252 13.6313 10.8208 13.3911 11.0751 13.2282L11.3137 13.0905C11.6103 12.9381 11.9512 12.8956 12.2761 12.9705L13.1404 13.214C13.6492 13.3584 13.9037 13.4306 14.1286 13.3391C14.3536 13.2476 14.4858 13.0181 14.7502 12.5592L15.0998 11.9525C15.3477 11.5224 15.4716 11.3073 15.4475 11.0784C15.4235 10.8494 15.2576 10.6649 14.9258 10.2959L14.1954 9.47939C14.0169 9.25338 13.8902 8.85968 13.8902 8.5054C13.8902 8.15135 14.017 7.75754 14.1954 7.53156L14.9258 6.71506C15.2576 6.34606 15.4235 6.16156 15.4475 5.93262C15.4716 5.70367 15.3477 5.4886 15.0998 5.05847Z" stroke="#141B34" stroke-width="1.5" stroke-linecap="round"/>
<path d="M10.993 8.49998C10.993 9.86919 9.88304 10.9791 8.51383 10.9791C7.14463 10.9791 6.03467 9.86919 6.03467 8.49998C6.03467 7.13077 7.14463 6.02081 8.51383 6.02081C9.88304 6.02081 10.993 7.13077 10.993 8.49998Z" stroke="#141B34" stroke-width="1.5"/>
</svg>
