<svg width="20" height="20" viewBox="0 0 20 20" fill="none" xmlns="http://www.w3.org/2000/svg">
<path d="M5 6.66669H8.33333" stroke="white" stroke-width="1.5" stroke-linecap="round" stroke-linejoin="round"/>
<path d="M18.3333 8.75C18.3333 8.68583 18.3333 8.30583 18.3317 8.27917C18.3017 7.86167 17.9442 7.52917 17.4942 7.50167C17.4658 7.5 17.4317 7.5 17.3617 7.5H15.1933C13.705 7.5 12.5 8.61917 12.5 10C12.5 11.3808 13.7058 12.5 15.1917 12.5H17.3608C17.4308 12.5 17.465 12.5 17.4942 12.4983C17.9442 12.4708 18.3025 12.1383 18.3317 11.7208C18.3333 11.6942 18.3333 11.3142 18.3333 11.25" stroke="white" stroke-width="1.5" stroke-linecap="round"/>
<path d="M15.0001 10.8334C15.4603 10.8334 15.8334 10.4603 15.8334 10C15.8334 9.53978 15.4603 9.16669 15.0001 9.16669C14.5398 9.16669 14.1667 9.53978 14.1667 10C14.1667 10.4603 14.5398 10.8334 15.0001 10.8334Z" fill="white"/>
<path d="M10.8334 3.33334C13.9759 3.33334 15.5476 3.33334 16.5234 4.31001C17.1976 4.98334 17.4067 5.94001 17.4709 7.50001M8.33341 16.6667H10.8334C13.9759 16.6667 15.5476 16.6667 16.5234 15.69C17.1976 15.0167 17.4067 14.06 17.4709 12.5M7.50008 3.33334C4.90508 3.34168 3.52925 3.42334 2.64341 4.31001C1.66675 5.28584 1.66675 6.85751 1.66675 10C1.66675 13.1425 1.66675 14.7142 2.64341 15.69C3.18758 16.235 3.91675 16.4758 5.00008 16.5817" stroke="white" stroke-width="1.5" stroke-linecap="round"/>
</svg>
