<svg width="19" height="19" viewBox="0 0 19 19" fill="none" xmlns="http://www.w3.org/2000/svg">
<rect width="19" height="19" fill="#1E1E1E"/>
<g clip-path="url(#clip0_0_1)">
<rect width="360" height="800" transform="translate(-306 -736)" fill="white"/>
<g filter="url(#filter0_d_0_1)">
<path d="M-306 -8C-306 -16.2843 -299.284 -23 -291 -23H39C47.2843 -23 54 -16.2843 54 -8V64H-306V-8Z" fill="white"/>
</g>
<g filter="url(#filter1_d_0_1)">
<circle cx="9.5" cy="9.5" r="15.5" fill="white"/>
</g>
<path d="M6.88988 16.3729L6.59807 17.0638H6.59807L6.88988 16.3729ZM5.03902 16.1869L5.23287 16.9114H5.23287L5.03902 16.1869ZM2 17L1.27549 16.8061L0.939999 18.06L2.19385 17.7245L2 17ZM2.62706 12.1101L3.31796 11.8183L3.31796 11.8183L2.62706 12.1101ZM2.81313 13.961L3.53765 14.1548L2.81313 13.961ZM5.89762 16.0244L5.84584 16.7726L5.84584 16.7726L5.89762 16.0244ZM8.33559 10.6644L7.80525 11.1947L8.33559 10.6644ZM6.08607 6.65735L6.81765 6.49216L6.08607 6.65735ZM7.96727 8.43651L7.38309 7.96616V7.96616L7.96727 8.43651ZM8.40064 5.47189L7.65968 5.58801L7.65968 5.58801L8.40064 5.47189ZM8.65237 7.24661L7.90365 7.20279L8.65237 7.24661ZM6.02334 5.90986L5.28926 5.75616L5.28926 5.75617L6.02334 5.90986ZM6.66796 5.10345L6.35635 4.42125L6.35635 4.42125L6.66796 5.10345ZM12.3426 12.9139L12.1775 13.6455L12.3426 12.9139ZM10.5635 11.0327L11.0338 11.6169H11.0338L10.5635 11.0327ZM13.5281 10.5994L13.412 11.3403L13.412 11.3403L13.5281 10.5994ZM11.7534 10.3476L11.7972 11.0963L11.7534 10.3476ZM13.0901 12.9767L13.2438 13.7107H13.2438L13.0901 12.9767ZM13.8965 12.332L14.5787 12.6437V12.6437L13.8965 12.332ZM17.25 9C17.25 13.0041 14.0041 16.25 10 16.25V17.75C14.8325 17.75 18.75 13.8325 18.75 9H17.25ZM2.75 9C2.75 4.99594 5.99594 1.75 10 1.75V0.25C5.16751 0.25 1.25 4.16751 1.25 9H2.75ZM10 1.75C14.0041 1.75 17.25 4.99594 17.25 9H18.75C18.75 4.16751 14.8325 0.25 10 0.25V1.75ZM10 16.25C8.99894 16.25 8.04709 16.0475 7.18168 15.682L6.59807 17.0638C7.64483 17.5059 8.79488 17.75 10 17.75V16.25ZM4.84516 15.4624L1.80615 16.2755L2.19385 17.7245L5.23287 16.9114L4.84516 15.4624ZM3.31796 11.8183C2.95246 10.9529 2.75 10.0011 2.75 9H1.25C1.25 10.2051 1.49406 11.3552 1.93615 12.4019L3.31796 11.8183ZM2.72451 17.1939L3.53765 14.1548L2.08862 13.7671L1.27549 16.8061L2.72451 17.1939ZM1.93615 12.4019C2.05071 12.6732 2.12582 12.8516 2.17559 12.9874C2.22664 13.1268 2.22799 13.1625 2.22741 13.1542L3.72383 13.0506C3.70944 12.8426 3.64809 12.6463 3.5841 12.4716C3.51883 12.2934 3.42657 12.0755 3.31796 11.8183L1.93615 12.4019ZM3.53765 14.1548C3.63996 13.7725 3.74842 13.4059 3.72383 13.0506L2.22741 13.1542C2.23046 13.1982 2.22139 13.2709 2.08862 13.7671L3.53765 14.1548ZM7.18168 15.682C6.92453 15.5734 6.70662 15.4812 6.52839 15.4159C6.35366 15.3519 6.15736 15.2906 5.94939 15.2762L5.84584 16.7726C5.83754 16.772 5.87317 16.7734 6.01256 16.8244C6.14844 16.8742 6.32683 16.9493 6.59807 17.0638L7.18168 15.682ZM5.23287 16.9114C5.72908 16.7786 5.80185 16.7695 5.84584 16.7726L5.9494 15.2762C5.59406 15.2516 5.22753 15.36 4.84516 15.4624L5.23287 16.9114ZM8.86592 10.1341C7.79232 9.06049 7.10789 7.7775 6.81765 6.49216L5.35449 6.82255C5.70848 8.39021 6.53538 9.92487 7.80525 11.1947L8.86592 10.1341ZM7.38309 7.96616L6.68634 8.83152L7.8547 9.77223L8.55145 8.90687L7.38309 7.96616ZM7.65968 5.58801C7.7463 6.14069 7.81022 6.54864 7.85172 6.83416C7.87253 6.97726 7.88669 7.08282 7.89513 7.15709C7.90598 7.25264 7.90108 7.24677 7.90365 7.20279L9.40109 7.29042C9.40725 7.18512 9.39425 7.06442 9.38555 6.98779C9.37443 6.8899 9.35757 6.76594 9.33612 6.61837C9.29312 6.32254 9.22758 5.90445 9.14159 5.35577L7.65968 5.58801ZM6.81765 6.49216C6.77668 6.3107 6.75961 6.23049 6.75264 6.16708C6.74821 6.12684 6.74902 6.10366 6.75742 6.06356L5.28926 5.75617C5.19989 6.18301 5.28319 6.50681 5.35449 6.82255L6.81765 6.49216ZM7.57866 4.25C7.1771 4.25 6.76278 4.2356 6.35635 4.42125L6.97957 5.78565C6.99599 5.77815 7.0222 5.76738 7.10504 5.75986C7.20587 5.7507 7.33793 5.75 7.57866 5.75V4.25ZM6.75742 6.06356C6.7569 6.06603 6.76053 6.04922 6.77784 6.01558C6.79443 5.98336 6.81831 5.94602 6.84832 5.90848C6.87833 5.87094 6.90949 5.83942 6.93727 5.81614C6.96627 5.79184 6.98187 5.7846 6.97957 5.78565L6.35635 4.42125C6.07597 4.54932 5.84322 4.76352 5.67666 4.97189C5.5101 5.18025 5.35242 5.45447 5.28926 5.75616L6.75742 6.06356ZM7.80525 11.1947C9.07513 12.4646 10.6098 13.2915 12.1775 13.6455L12.5078 12.1824C11.2225 11.8921 9.93951 11.2077 8.86592 10.1341L7.80525 11.1947ZM10.0931 10.4485L9.22777 11.1453L10.1685 12.3137L11.0338 11.6169L10.0931 10.4485ZM13.6442 9.85841C13.0955 9.77242 12.6775 9.70688 12.3816 9.66388C12.2341 9.64242 12.1101 9.62557 12.0122 9.61445C11.9356 9.60575 11.8149 9.59275 11.7096 9.59891L11.7972 11.0963C11.7532 11.0989 11.7474 11.094 11.8429 11.1049C11.9172 11.1133 12.0227 11.1275 12.1658 11.1483C12.4514 11.1898 12.8593 11.2537 13.412 11.3403L13.6442 9.85841ZM12.1775 13.6455C12.4932 13.7168 12.817 13.8001 13.2438 13.7107L12.9364 12.2426C12.8963 12.251 12.8732 12.2518 12.8329 12.2474C12.7695 12.2404 12.6893 12.2233 12.5078 12.1824L12.1775 13.6455ZM13.25 11.4213C13.25 11.6621 13.2493 11.7941 13.2401 11.895C13.2326 11.9778 13.2218 12.004 13.2143 12.0204L14.5787 12.6437C14.7644 12.2372 14.75 11.8229 14.75 11.4213H13.25ZM13.2438 13.7107C13.5455 13.6476 13.8198 13.4899 14.0281 13.3233C14.2365 13.1568 14.4507 12.924 14.5787 12.6437L13.2143 12.0204C13.2154 12.0181 13.2082 12.0337 13.1839 12.0627C13.1606 12.0905 13.1291 12.1217 13.0915 12.1517C13.054 12.1817 13.0166 12.2056 12.9844 12.2222C12.9508 12.2395 12.934 12.2431 12.9364 12.2426L13.2438 13.7107ZM8.55145 8.90687C8.64883 8.78593 8.87753 8.53038 9.02796 8.31087C9.20188 8.05708 9.37599 7.71928 9.40109 7.29042L7.90365 7.20279C7.90033 7.25956 7.87873 7.33436 7.79062 7.46293C7.74556 7.52868 7.68996 7.59878 7.61861 7.6842C7.55583 7.75936 7.46131 7.86901 7.38309 7.96616L8.55145 8.90687ZM7.57866 5.75C7.655 5.75 7.71201 5.75234 7.75716 5.75768C7.80331 5.76313 7.81535 5.76941 7.80698 5.76592C7.79435 5.76066 7.75291 5.73998 7.71277 5.69101C7.67087 5.63989 7.66079 5.59506 7.65968 5.58801L9.14159 5.35577C9.06365 4.85844 8.75542 4.53613 8.38397 4.38134C8.07927 4.25436 7.75528 4.25 7.57866 4.25V5.75ZM11.0338 11.6169C11.131 11.5387 11.2406 11.4442 11.3158 11.3814C11.4012 11.31 11.4713 11.2544 11.5371 11.2094C11.6656 11.1213 11.7404 11.0997 11.7972 11.0963L11.7096 9.59891C11.2807 9.62401 10.9429 9.79812 10.6891 9.97204C10.4696 10.1225 10.2141 10.3512 10.0931 10.4485L11.0338 11.6169ZM14.75 11.4213C14.75 11.2447 14.7456 10.9207 14.6187 10.616C14.4639 10.2446 14.1416 9.93635 13.6442 9.8584L13.412 11.3403C13.4049 11.3392 13.3601 11.3291 13.309 11.2872C13.26 11.2471 13.2393 11.2056 13.2341 11.193C13.2306 11.1847 13.2369 11.1967 13.2423 11.2428C13.2477 11.288 13.25 11.345 13.25 11.4213H14.75Z" fill="#07273D"/>
</g>
<defs>
<filter id="filter0_d_0_1" x="-310" y="-28" width="368" height="95" filterUnits="userSpaceOnUse" color-interpolation-filters="sRGB">
<feFlood flood-opacity="0" result="BackgroundImageFix"/>
<feColorMatrix in="SourceAlpha" type="matrix" values="0 0 0 0 0 0 0 0 0 0 0 0 0 0 0 0 0 0 127 0" result="hardAlpha"/>
<feOffset dy="-1"/>
<feGaussianBlur stdDeviation="2"/>
<feComposite in2="hardAlpha" operator="out"/>
<feColorMatrix type="matrix" values="0 0 0 0 0.027451 0 0 0 0 0.152941 0 0 0 0 0.239216 0 0 0 0.25 0"/>
<feBlend mode="normal" in2="BackgroundImageFix" result="effect1_dropShadow_0_1"/>
<feBlend mode="normal" in="SourceGraphic" in2="effect1_dropShadow_0_1" result="shape"/>
</filter>
<filter id="filter1_d_0_1" x="-9" y="-8" width="37" height="37" filterUnits="userSpaceOnUse" color-interpolation-filters="sRGB">
<feFlood flood-opacity="0" result="BackgroundImageFix"/>
<feColorMatrix in="SourceAlpha" type="matrix" values="0 0 0 0 0 0 0 0 0 0 0 0 0 0 0 0 0 0 127 0" result="hardAlpha"/>
<feOffset dy="1"/>
<feGaussianBlur stdDeviation="1.5"/>
<feComposite in2="hardAlpha" operator="out"/>
<feColorMatrix type="matrix" values="0 0 0 0 0 0 0 0 0 0 0 0 0 0 0 0 0 0 0.25 0"/>
<feBlend mode="normal" in2="BackgroundImageFix" result="effect1_dropShadow_0_1"/>
<feBlend mode="normal" in="SourceGraphic" in2="effect1_dropShadow_0_1" result="shape"/>
</filter>
<clipPath id="clip0_0_1">
<rect width="360" height="800" fill="white" transform="translate(-306 -736)"/>
</clipPath>
</defs>
</svg>
